<svg xmlns="http://www.w3.org/2000/svg" viewBox="0 0 778.12 578.25">
  <g id="Layer_2" data-name="Layer 2">
    <g id="Layer_1-2" data-name="Layer 1">
      <g style="opacity: 0.1">
        <g>
          <path d="M501.3,177.79a322.56,322.56,0,0,0,0,222.65,292.25,292.25,0,0,0,54,91.18c23.11,26.39,50,47.11,79.86,61.61a221.8,221.8,0,0,0,97.51,22.62h45.49v2.39H732.63c-69.64,0-133-32.53-178.85-84.93s-74.39-124.68-74.39-204.19C479.39,130.1,593.35,0,732.63,0h45.49V2.39H732.63A221.8,221.8,0,0,0,635.12,25c-29.88,14.49-56.75,35.22-79.86,61.61A292.31,292.31,0,0,0,501.3,177.79Z" style="fill: #bcaea1"/>
          <path d="M511.84,182a310.45,310.45,0,0,0,0,214.26A281.24,281.24,0,0,0,563.76,484c22.24,25.39,48.1,45.34,76.85,59.28a213.42,213.42,0,0,0,93.84,21.78h43.67v2.39H734.45c-67,0-128-31.31-172.17-81.76s-71.61-120-71.61-196.56C490.67,136,600.37,10.8,734.45,10.8h43.67v2.39H734.45A213.54,213.54,0,0,0,640.61,35C611.86,48.91,586,68.86,563.76,94.25A281.24,281.24,0,0,0,511.84,182Z" style="fill: #bcaea1"/>
          <path d="M522.37,186.18a298.34,298.34,0,0,0,0,205.87,270.42,270.42,0,0,0,49.9,84.31c21.37,24.4,46.21,43.56,73.84,57a205.07,205.07,0,0,0,90.16,20.92h41.85v2.39H736.27c-64.44,0-123-30.1-165.48-78.58S502,362.69,502,289.12C502,142,607.4,21.61,736.27,21.61h41.85V24H736.27a205.07,205.07,0,0,0-90.16,20.92c-27.63,13.4-52.47,32.56-73.84,57A270.48,270.48,0,0,0,522.37,186.18Z" style="fill: #bcaea1"/>
          <path d="M532.91,190.38a286.23,286.23,0,0,0,0,197.48,259.41,259.41,0,0,0,47.86,80.87c20.5,23.4,44.33,41.79,70.83,54.64a196.77,196.77,0,0,0,86.49,20.07h40v2.39h-40c-61.84,0-118.05-28.88-158.8-75.41s-66-110.71-66-181.3c0-141.19,101.18-256.71,224.85-256.71h40V34.8h-40A196.64,196.64,0,0,0,651.6,54.87c-26.5,12.85-50.33,31.24-70.83,54.64A259.3,259.3,0,0,0,532.91,190.38Z" style="fill: #bcaea1"/>
          <path d="M543.45,194.57a274,274,0,0,0,0,189.09,248.42,248.42,0,0,0,45.82,77.44c19.63,22.41,42.45,40,67.83,52.32a188.29,188.29,0,0,0,82.81,19.21h38.21V535H739.91c-59.23,0-113.08-27.66-152.11-72.23s-63.27-106-63.27-173.67c0-135.25,96.92-245.9,215.38-245.9h38.21v2.39H739.91A188.29,188.29,0,0,0,657.1,64.82c-25.38,12.31-48.2,29.91-67.83,52.32A248.48,248.48,0,0,0,543.45,194.57Z" style="fill: #bcaea1"/>
          <path d="M554,198.77a261.72,261.72,0,0,0,0,180.7,237.36,237.36,0,0,0,43.79,74c18.76,21.41,40.56,38.23,64.81,50a179.9,179.9,0,0,0,79.14,18.37h36.39v2.39H741.73c-56.63,0-108.11-26.45-145.43-69.06s-60.49-101.39-60.49-166c0-129.3,92.66-235.1,205.92-235.1h36.39v2.39H741.73a180,180,0,0,0-79.14,18.36,205.32,205.32,0,0,0-64.81,50A237.25,237.25,0,0,0,554,198.77Z" style="fill: #bcaea1"/>
          <path d="M564.52,203a249.73,249.73,0,0,0,0,172.3,226.53,226.53,0,0,0,41.76,70.56,195.37,195.37,0,0,0,61.81,47.68A171.58,171.58,0,0,0,743.55,511h34.57v2.39H743.55c-54,0-103.14-25.23-138.75-65.88s-57.71-96.73-57.71-158.41c0-123.36,88.41-224.29,196.46-224.29h34.57v2.39H743.55a171.58,171.58,0,0,0-75.46,17.51,195.48,195.48,0,0,0-61.81,47.67A226.47,226.47,0,0,0,564.52,203Z" style="fill: #bcaea1"/>
          <path d="M575.06,207.16a237.5,237.5,0,0,0,0,163.92,215.06,215.06,0,0,0,39.73,67.12,185.93,185.93,0,0,0,58.79,45.36,163.31,163.31,0,0,0,71.79,16.65h32.75v2.4H745.37c-51.42,0-98.17-24-132.06-62.71s-54.93-92.07-54.93-150.78c0-117.42,84.14-213.49,187-213.49h32.75V78H745.37a163.32,163.32,0,0,0-71.79,16.66A186,186,0,0,0,614.79,140,215.22,215.22,0,0,0,575.06,207.16Z" style="fill: #bcaea1"/>
          <path d="M585.6,211.36a225.21,225.21,0,0,0,0,155.52,204.18,204.18,0,0,0,37.69,63.69,176.56,176.56,0,0,0,55.79,43,154.94,154.94,0,0,0,68.11,15.8h30.93v2.39H747.19c-48.82,0-93.2-22.8-125.38-59.54s-52.15-87.41-52.15-143.14c0-111.48,79.89-202.68,177.53-202.68h30.93v2.39H747.19a154.94,154.94,0,0,0-68.11,15.8,176.27,176.27,0,0,0-55.79,43A204.18,204.18,0,0,0,585.6,211.36Z" style="fill: #bcaea1"/>
          <path d="M596.13,215.55a213.29,213.29,0,0,0,0,147.14,193.39,193.39,0,0,0,35.66,60.25,166.91,166.91,0,0,0,52.78,40.71,146.54,146.54,0,0,0,64.44,15h29.11V481H749c-46.22,0-88.24-21.59-118.7-56.37s-49.37-82.74-49.37-135.51c0-105.53,75.63-191.88,168.07-191.88h29.11v2.39H749a146.54,146.54,0,0,0-64.44,15,167.09,167.09,0,0,0-52.78,40.72A193.28,193.28,0,0,0,596.13,215.55Z" style="fill: #bcaea1"/>
          <path d="M640.3,162.93c-29.65,33.85-46,78.66-46,126.19s16.33,92.34,46,126.19,68.9,52.49,110.53,52.49h27.29v2.39H750.83c-43.62,0-83.26-20.37-112-53.19s-46.59-78.09-46.59-127.88c0-99.59,71.37-181.07,158.6-181.07h27.29v2.39H750.83C709.2,110.44,669.94,129.08,640.3,162.93Z" style="fill: #bcaea1"/>
          <path d="M648.8,170.56c-27.85,31.8-43.19,73.91-43.19,118.56S621,375.88,648.8,407.68,713.53,457,752.65,457h25.47v2.4H752.65c-41,0-78.3-19.16-105.33-50S603.51,336,603.51,289.12c0-93.65,67.11-170.27,149.14-170.27h25.47v2.39H752.65C713.53,121.24,676.66,138.76,648.8,170.56Z" style="fill: #bcaea1"/>
          <path d="M657.3,178.19c-26.06,29.76-40.41,69.15-40.41,110.93s14.35,81.17,40.41,110.93,60.57,46.14,97.17,46.14h23.65v2.39H754.47c-38.41,0-73.33-17.94-98.65-46.84s-41-68.77-41-112.62c0-87.7,62.86-159.46,139.68-159.46h23.65v2.39H754.47C717.87,132.05,683.37,148.44,657.3,178.19Z" style="fill: #bcaea1"/>
          <path d="M665.81,185.82c-24.27,27.71-37.64,64.39-37.64,103.3s13.37,75.59,37.64,103.3,56.4,43,90.47,43h21.84v2.4H756.28c-35.81,0-68.35-16.73-91.95-43.67s-38.25-64.11-38.25-105c0-81.76,58.59-148.66,130.2-148.66h21.84v2.39H756.28C722.21,142.85,690.08,158.11,665.81,185.82Z" style="fill: #bcaea1"/>
          <path d="M674.31,193.45c-22.47,25.66-34.85,59.64-34.85,95.67s12.38,70,34.85,95.67,52.24,39.79,83.79,39.79h20V427h-20c-33.2,0-63.39-15.51-85.27-40.49S637.36,327,637.36,289.12c0-75.82,54.34-137.85,120.74-137.85h20v2.39h-20C726.55,153.66,696.79,167.79,674.31,193.45Z" style="fill: #bcaea1"/>
          <path d="M682.82,201.08c-20.69,23.62-32.08,54.88-32.08,88s11.39,64.42,32.08,88,48.06,36.62,77.1,36.62h18.2v2.4h-18.2c-30.6,0-58.42-14.3-78.59-37.32s-32.68-54.8-32.68-89.73c0-69.88,50.07-127,111.27-127h18.2v2.39h-18.2C730.88,164.46,703.5,177.47,682.82,201.08Z" style="fill: #bcaea1"/>
          <path d="M691.32,208.71c-18.89,21.57-29.3,50.13-29.3,80.41s10.41,58.84,29.3,80.4S735.22,403,761.74,403h16.38v2.39H761.74c-28,0-53.45-13.08-71.9-34.15s-29.91-50.12-29.91-82.09c0-63.93,45.82-116.24,101.81-116.24h16.38v2.39H761.74C735.22,175.27,710.21,187.15,691.32,208.71Z" style="fill: #bcaea1"/>
          <path d="M699.82,216.35c-17.1,19.52-26.51,45.36-26.51,72.77s9.41,53.25,26.51,72.77,39.74,30.27,63.74,30.27h14.56v2.4H763.56c-25.39,0-48.48-11.86-65.22-31s-27.13-45.48-27.13-74.47c0-58,41.56-105.44,92.35-105.44h14.56v2.39H763.56C739.56,186.07,716.92,196.83,699.82,216.35Z" style="fill: #bcaea1"/>
          <path d="M708.33,224c-15.31,17.47-23.74,40.61-23.74,65.14s8.43,47.67,23.74,65.14,35.56,27.1,57,27.1h12.74v2.39H765.38c-22.79,0-43.51-10.64-58.53-27.8s-24.35-40.8-24.35-66.83c0-52.05,37.3-94.63,82.88-94.63h12.74v2.39H765.38C743.89,196.88,723.63,206.5,708.33,224Z" style="fill: #bcaea1"/>
          <path d="M716.83,231.61c-13.51,15.43-21,35.85-21,57.51s7.44,42.08,21,57.51,31.4,23.92,50.37,23.92h10.92V373H767.2c-20.19,0-38.55-9.43-51.85-24.63s-21.57-36.15-21.57-59.2c0-46.11,33-83.83,73.42-83.83h10.92v2.39H767.2C748.23,207.68,730.34,216.18,716.83,231.61Z" style="fill: #bcaea1"/>
          <path d="M707.16,289.12c0,38.94,27.75,70.63,61.86,70.63h9.1v2.39H769c-17.59,0-33.57-8.21-45.17-21.45s-18.79-31.49-18.79-51.57c0-40.16,28.79-73,64-73h9.1v2.39H769C734.91,218.49,707.16,250.17,707.16,289.12Z" style="fill: #bcaea1"/>
          <path d="M718.44,289.12c0,33,23.51,59.82,52.4,59.82h7.28v2.4h-7.28c-15,0-28.61-7-38.48-18.28a66.66,66.66,0,0,1-16-43.94c0-34.22,24.52-62.22,54.49-62.22h7.28v2.39h-7.28C742,229.29,718.44,256.13,718.44,289.12Z" style="fill: #bcaea1"/>
          <path d="M729.73,289.12c0,27,19.26,49,42.93,49h5.46v2.39h-5.46c-12.38,0-23.64-5.78-31.8-15.1a55.12,55.12,0,0,1-13.23-36.31c0-28.28,20.27-51.41,45-51.41h5.46v2.39h-5.46C749,240.1,729.73,262.09,729.73,289.12Z" style="fill: #bcaea1"/>
          <path d="M741,289.12c0,21.07,15,38.21,33.47,38.21h3.64v2.39h-3.64c-9.78,0-18.67-4.57-25.11-11.93a43.48,43.48,0,0,1-10.45-28.67c0-22.33,16-40.61,35.56-40.61h3.64v2.4h-3.64C756,250.91,741,268.05,741,289.12Z" style="fill: #bcaea1"/>
          <path d="M752.29,289.12c0,15.11,10.77,27.41,24,27.41h1.82v2.39H776.3a24.53,24.53,0,0,1-18.43-8.75,32,32,0,0,1-7.67-21.05c0-16.39,11.75-29.8,26.1-29.8h1.82v2.39H776.3C763.06,261.71,752.29,274,752.29,289.12Z" style="fill: #bcaea1"/>
          <path d="M763.58,289.12c0,9.15,6.52,16.6,14.54,16.6v2.39c-9.15,0-16.64-8.54-16.64-19s7.49-19,16.64-19v2.4C770.1,272.52,763.58,280,763.58,289.12Z" style="fill: #bcaea1"/>
          <path d="M774.86,289.12a5.83,5.83,0,0,0,3.26,5.41V297a8.54,8.54,0,0,1,0-15.84v2.51A5.83,5.83,0,0,0,774.86,289.12Z" style="fill: #bcaea1"/>
        </g>
        <g>
          <path d="M0,575.85H220.51A221.77,221.77,0,0,0,318,553.23c29.88-14.49,56.75-35.22,79.86-61.61a292.31,292.31,0,0,0,54-91.17,322.56,322.56,0,0,0,0-222.65,292.36,292.36,0,0,0-54-91.18C374.77,60.24,347.9,39.51,318,25A221.77,221.77,0,0,0,220.51,2.39H0V0H220.51C359.8,0,473.75,130.11,473.75,289.12h0c0,159-113.95,289.13-253.24,289.13H0Z" style="fill: #bcaea1"/>
          <path d="M0,565.05H218.69a213.48,213.48,0,0,0,93.84-21.77c28.75-13.95,54.61-33.89,76.85-59.29a281.46,281.46,0,0,0,51.93-87.74,310.6,310.6,0,0,0,0-214.26,281.46,281.46,0,0,0-51.93-87.74C367.14,68.86,341.28,48.91,312.53,35A213.34,213.34,0,0,0,218.69,13.2H0V10.81H218.69c134.08,0,243.78,125.24,243.78,278.31h0c0,153.08-109.7,278.32-243.78,278.32H0Z" style="fill: #bcaea1"/>
          <path d="M0,554.24H216.87A205,205,0,0,0,307,533.33c27.63-13.4,52.48-32.57,73.85-57a270.53,270.53,0,0,0,49.89-84.3,298.34,298.34,0,0,0,0-205.87,270.58,270.58,0,0,0-49.89-84.31c-21.37-24.39-46.22-43.56-73.85-57A205,205,0,0,0,216.88,24H0V21.61H216.88c128.87,0,234.31,120.38,234.31,267.51h0c0,147.14-105.44,267.52-234.32,267.52H0Z" style="fill: #bcaea1"/>
          <path d="M0,543.44H215.06a196.63,196.63,0,0,0,86.48-20.07c26.5-12.85,50.33-31.24,70.83-54.64a259.3,259.3,0,0,0,47.86-80.87,286.08,286.08,0,0,0,0-197.48,259.52,259.52,0,0,0-47.86-80.87c-20.5-23.4-44.33-41.78-70.83-54.64a196.75,196.75,0,0,0-86.48-20.06H0V32.42H215.06c123.66,0,224.84,115.51,224.84,256.7h0c0,141.19-101.18,256.71-224.84,256.71H0Z" style="fill: #bcaea1"/>
          <path d="M0,532.63H213.24a188.35,188.35,0,0,0,82.81-19.21c25.37-12.31,48.19-29.91,67.82-52.32a248.29,248.29,0,0,0,45.82-77.43,274,274,0,0,0,0-189.09,248.18,248.18,0,0,0-45.82-77.43c-19.63-22.41-42.45-40-67.82-52.33a188.49,188.49,0,0,0-82.81-19.21H0V43.22H213.24c118.46,0,215.38,110.66,215.38,245.9h0C428.62,424.37,331.7,535,213.24,535H0Z" style="fill: #bcaea1"/>
          <path d="M0,521.83H211.42a180,180,0,0,0,79.13-18.36,205.06,205.06,0,0,0,64.81-50,237.27,237.27,0,0,0,43.8-74,261.87,261.87,0,0,0,0-180.7,237.22,237.22,0,0,0-43.8-74,204.92,204.92,0,0,0-64.81-50,179.88,179.88,0,0,0-79.13-18.36H0V54H211.42c113.25,0,205.91,105.79,205.91,235.09h0c0,129.31-92.66,235.1-205.91,235.1H0Z" style="fill: #bcaea1"/>
          <path d="M0,511H209.6a171.71,171.71,0,0,0,75.46-17.5,195.73,195.73,0,0,0,61.8-47.68,226.15,226.15,0,0,0,41.76-70.56,249.61,249.61,0,0,0,0-172.31,226.15,226.15,0,0,0-41.76-70.56,195.73,195.73,0,0,0-61.8-47.68A171.58,171.58,0,0,0,209.6,67.22H0V64.83H209.6c108,0,196.45,100.93,196.45,224.29h0c0,123.36-88.4,224.3-196.45,224.3H0Z" style="fill: #bcaea1"/>
          <path d="M0,500.22H207.78a163.28,163.28,0,0,0,71.78-16.66,186.19,186.19,0,0,0,58.8-45.35,215.27,215.27,0,0,0,39.72-67.13,237.5,237.5,0,0,0,0-163.92A215.22,215.22,0,0,0,338.36,140a186.08,186.08,0,0,0-58.8-45.36A163.24,163.24,0,0,0,207.78,78H0V75.64H207.78c102.84,0,187,96.06,187,213.48h0c0,117.42-84.15,213.49-187,213.49H0Z" style="fill: #bcaea1"/>
          <path d="M0,489.41H206a154.87,154.87,0,0,0,68.11-15.8,176.45,176.45,0,0,0,55.78-43,204.32,204.32,0,0,0,37.7-63.69,225.4,225.4,0,0,0,0-155.53,204.2,204.2,0,0,0-37.7-63.69,176.63,176.63,0,0,0-55.78-43A155,155,0,0,0,206,88.83H0V86.44H206c97.64,0,177.52,91.21,177.52,202.68h0C383.48,400.6,303.6,491.81,206,491.8H0Z" style="fill: #bcaea1"/>
          <path d="M0,478.61H204.14a146.53,146.53,0,0,0,64.43-14.95A167.09,167.09,0,0,0,321.35,423,193.44,193.44,0,0,0,357,362.69a213.26,213.26,0,0,0,0-147.13,193.32,193.32,0,0,0-35.66-60.26,166.94,166.94,0,0,0-52.78-40.71,146.53,146.53,0,0,0-64.43-15H0V97.25H204.14c92.43,0,168.06,86.34,168.06,191.87h0C372.2,394.66,296.57,481,204.14,481H0Z" style="fill: #bcaea1"/>
          <path d="M0,467.8H202.32c41.63,0,80.88-18.64,110.53-52.49s46-78.66,46-126.19-16.33-92.34-46-126.19S244,110.44,202.32,110.44H0v-2.39H202.32c87.23,0,158.6,81.48,158.6,181.07h0c0,99.59-71.37,181.07-158.6,181.07H0Z" style="fill: #bcaea1"/>
          <path d="M0,457H200.5c39.11,0,76-17.52,103.84-49.32s43.2-73.9,43.2-118.56-15.34-86.76-43.2-118.56-64.73-49.31-103.84-49.31H0v-2.39H200.5c82,0,149.13,76.62,149.13,170.26h0c0,93.65-67.11,170.27-149.13,170.27H0Z" style="fill: #bcaea1"/>
          <path d="M0,446.19H198.68c36.59,0,71.1-16.38,97.16-46.14s40.41-69.15,40.41-110.93S321.9,208,295.84,178.19s-60.57-46.14-97.16-46.14H0v-2.39H198.68c76.82,0,139.67,71.76,139.67,159.46h0c0,87.71-62.85,159.46-139.67,159.46H0Z" style="fill: #bcaea1"/>
          <path d="M0,435.39H196.86c34.07,0,66.21-15.26,90.47-43S325,328,325,289.12s-13.37-75.59-37.63-103.29-56.41-43-90.48-43H0v-2.39H196.86c71.61,0,130.2,66.89,130.2,148.65h0c0,81.76-58.59,148.66-130.2,148.66H0Z" style="fill: #bcaea1"/>
          <path d="M0,424.58H195c31.56,0,61.31-14.13,83.79-39.79s34.86-59.64,34.86-95.67-12.38-70-34.86-95.66-52.23-39.8-83.79-39.8H0v-2.39H195c66.41,0,120.74,62,120.74,137.85h0C315.78,364.94,261.45,427,195,427H0Z" style="fill: #bcaea1"/>
          <path d="M0,413.78H193.22c29,0,56.42-13,77.11-36.62s32.07-54.88,32.07-88-11.39-64.42-32.07-88-48.07-36.62-77.11-36.62H0v-2.39H193.22c61.2,0,111.28,57.17,111.28,127h0c0,69.88-50.08,127.05-111.28,127.05H0Z" style="fill: #bcaea1"/>
          <path d="M0,403H191.4c26.52,0,51.53-11.88,70.42-33.44s29.3-50.13,29.3-80.41-10.41-58.83-29.3-80.4-43.9-33.45-70.42-33.45H0v-2.39H191.4c56,0,101.81,52.31,101.81,116.24h0c0,63.94-45.81,116.24-101.81,116.24H0Z" style="fill: #bcaea1"/>
          <path d="M0,392.17H189.58c24,0,46.64-10.75,63.74-30.27s26.51-45.37,26.51-72.78-9.41-53.25-26.51-72.77-39.73-30.27-63.74-30.27H0v-2.39H189.58c50.79,0,92.35,47.44,92.35,105.43h0c0,58-41.56,105.44-92.35,105.44H0Z" style="fill: #bcaea1"/>
          <path d="M0,381.36H187.76c21.49,0,41.75-9.62,57.06-27.09s23.73-40.61,23.73-65.15-8.43-47.67-23.73-65.14-35.57-27.1-57.06-27.1H0v-2.39H187.76c45.59,0,82.89,42.59,82.89,94.63h0c0,52.05-37.3,94.63-82.89,94.63H0Z" style="fill: #bcaea1"/>
          <path d="M0,370.56H185.94c19,0,36.86-8.5,50.37-23.93s21-35.85,21-57.51-7.44-42.08-21-57.51-31.4-23.92-50.37-23.92H0V205.3H185.94c40.38,0,73.42,37.72,73.42,83.82h0c0,46.11-33,83.83-73.42,83.83H0Z" style="fill: #bcaea1"/>
          <path d="M0,359.75H184.12c34.11,0,61.86-31.68,61.86-70.63s-27.75-70.63-61.86-70.63H0V216.1H184.12c35.18,0,64,32.86,64,73h0c0,40.16-28.78,73-64,73H0Z" style="fill: #bcaea1"/>
          <path d="M0,349H182.3c28.89,0,52.4-26.84,52.4-59.83s-23.51-59.82-52.4-59.82H0v-2.39H182.3c30,0,54.49,28,54.49,62.21h0c0,34.22-24.52,62.22-54.49,62.22H0Z" style="fill: #bcaea1"/>
          <path d="M0,338.14H180.48c23.68,0,42.94-22,42.94-49s-19.26-49-42.94-49H0v-2.39H180.48c24.77,0,45,23.14,45,51.41h0c0,28.28-20.26,51.41-45,51.41H0Z" style="fill: #bcaea1"/>
          <path d="M0,327.34H178.66c18.46,0,33.47-17.15,33.47-38.22s-15-38.21-33.47-38.21H0v-2.39H178.66c19.56,0,35.57,18.27,35.57,40.6h0c0,22.34-16,40.61-35.57,40.61H0Z" style="fill: #bcaea1"/>
          <path d="M0,316.53H176.84c13.24,0,24-12.29,24-27.41s-10.77-27.41-24-27.41H0v-2.39H176.84c14.36,0,26.1,13.41,26.1,29.8h0c0,16.39-11.74,29.8-26.1,29.8H0Z" style="fill: #bcaea1"/>
          <path d="M0,305.73H175c8,0,14.54-7.45,14.54-16.61S183,272.52,175,272.52H0v-2.39H175c9.15,0,16.64,8.55,16.64,19s-7.49,19-16.64,19H0Z" style="fill: #bcaea1"/>
          <path d="M0,294.92H173.2c2.8,0,5.08-2.6,5.08-5.8s-2.28-5.8-5.08-5.8H0v-2.39H173.2c4,0,7.18,3.69,7.18,8.19s-3.23,8.19-7.18,8.19H0Z" style="fill: #bcaea1"/>
        </g>
      </g>
    </g>
  </g>
</svg>
