<svg xmlns="http://www.w3.org/2000/svg" viewBox="0 0 106.43 18.66">
  <g id="Layer_2" data-name="Layer 2">
    <g id="Layer_1-2" data-name="Layer 1">
      <g>
        <g>
          <path d="M44.21,11.28c0,1.6-1.2,2.93-3.72,2.93s-4.32-1.28-4.41-3.55h1.66c.09,1.28.95,2.12,2.75,2.12,1.48,0,2.06-.66,2.06-1.43,0-1.19-.86-1.41-2.83-1.9-1.57-.4-3.27-1-3.27-2.9S37.83,3.77,40,3.77,43.81,4.92,44,7H42.28C42.13,5.82,41.4,5.2,40,5.2c-1.19,0-1.9.45-1.9,1.19,0,1.09.94,1.29,2.34,1.64C42.59,8.58,44.21,9,44.21,11.28Z"/>
          <path d="M48.4,7.81c-1.18,0-1.61.36-1.68,1.29H45.29c.07-1.38,1-2.46,3.11-2.46,1.58,0,2.76.61,2.76,2.51v3.41c0,.5.11.77.68.71V14a2.1,2.1,0,0,1-.85.15c-.79,0-1.15-.28-1.29-1h0a2.8,2.8,0,0,1-2.37,1.07A2.08,2.08,0,0,1,45,12.16c0-1.56,1.16-2.06,3-2.41,1.1-.21,1.78-.35,1.78-1C49.69,8.2,49.38,7.81,48.4,7.81Zm1.29,3.47V10.2a4.92,4.92,0,0,1-1.5.48c-1.22.26-1.75.61-1.75,1.34s.39,1,1.19,1C48.85,13.05,49.69,12.44,49.69,11.28Z"/>
          <path d="M62.78,9.05V14H61.29V9.47c0-1-.19-1.58-1.2-1.58a1.57,1.57,0,0,0-1.61,1.75V14H57V9.47c0-1-.19-1.58-1.21-1.58a1.58,1.58,0,0,0-1.62,1.75V14H52.69V6.84h1.47v.93h0a2.46,2.46,0,0,1,2.13-1.13,1.86,1.86,0,0,1,1.91,1.24h0a2.84,2.84,0,0,1,2.34-1.24C62,6.64,62.78,7.51,62.78,9.05Z"/>
          <path d="M67.35,14.21a3.47,3.47,0,0,1-3.6-3.78,3.6,3.6,0,1,1,7.2,0A3.47,3.47,0,0,1,67.35,14.21Zm0-1.21c1.4,0,2.13-1.1,2.13-2.57s-.73-2.58-2.13-2.58-2.13,1.09-2.13,2.58S66,13,67.35,13Z"/>
          <path d="M77.81,12c0,1.37-1.17,2.23-2.91,2.23-2.31,0-3.31-1.08-3.38-2.59H73c.07.77.41,1.43,1.92,1.43,1,0,1.46-.51,1.46-1,0-.89-.86-1-1.91-1.22s-2.67-.49-2.67-2.11c0-1.18,1-2.12,2.83-2.12s2.87,1.05,3,2.3H76.12c-.1-.56-.38-1.13-1.53-1.13-.88,0-1.36.33-1.36.84,0,.73.8.78,1.84,1C76.38,10,77.81,10.27,77.81,12Z"/>
          <path d="M81.9,7.81c-1.18,0-1.61.36-1.68,1.29H78.79c.07-1.38.95-2.46,3.11-2.46,1.58,0,2.76.61,2.76,2.51v3.41c0,.5.11.77.68.71V14a2.1,2.1,0,0,1-.85.15c-.78,0-1.15-.28-1.29-1h0a2.79,2.79,0,0,1-2.36,1.07,2.09,2.09,0,0,1-2.36-2.05c0-1.56,1.17-2.06,3-2.41,1.1-.21,1.78-.35,1.78-1C83.19,8.2,82.88,7.81,81.9,7.81Zm1.29,3.47V10.2a4.92,4.92,0,0,1-1.5.48c-1.22.26-1.75.61-1.75,1.34s.39,1,1.19,1C82.35,13.05,83.19,12.44,83.19,11.28Z"/>
          <path d="M92,12c0,1.37-1.18,2.23-2.92,2.23-2.31,0-3.3-1.08-3.37-2.59h1.42c.08.77.41,1.43,1.92,1.43,1,0,1.46-.51,1.46-1,0-.89-.85-1-1.9-1.22S86,10.38,86,8.76c0-1.18,1-2.12,2.83-2.12,2,0,2.87,1.05,3,2.3H90.34c-.1-.56-.38-1.13-1.53-1.13-.88,0-1.35.33-1.35.84,0,.73.79.78,1.83,1C90.61,10,92,10.27,92,12Z"/>
          <path d="M97.52,4V14H95.85V4Z"/>
          <path d="M101.57,5.4H98.36V4h8.07V5.4h-3.2V14h-1.66Z"/>
        </g>
        <g>
          <path d="M20.84,15.17A67.39,67.39,0,0,0,13,1.12,2.11,2.11,0,0,0,11.44.3h0A2.09,2.09,0,0,0,9.8,1h0A79.09,79.09,0,0,0,.6,14.08,2.07,2.07,0,0,0,.48,16,2.12,2.12,0,0,0,2,17.21a58.9,58.9,0,0,0,8.47,1.07,58.32,58.32,0,0,0,8.66-.19,2.06,2.06,0,0,0,1.61-1A2.09,2.09,0,0,0,20.84,15.17Zm-19.16.3a.77.77,0,0,1,.05-.72,78.81,78.81,0,0,1,9-12.88l3.33,9.35a2.11,2.11,0,0,1-.85,2.48C10.62,15.33,6.46,15.79,3.13,16l-.18,0-.71-.13A.8.8,0,0,1,1.68,15.47Zm17.91.93a.77.77,0,0,1-.61.38,56.9,56.9,0,0,1-10.84,0,16.18,16.18,0,0,0,5.79-2,3.41,3.41,0,0,0,1.39-4l-3-8.3A68.12,68.12,0,0,1,19.63,15.7.78.78,0,0,1,19.59,16.4Z" style="stroke: #000;stroke-miterlimit: 10;stroke-width: 0.6000000000000001px"/>
          <path d="M5.92,12.25l.36.22a.86.86,0,0,0,.3.09.66.66,0,0,0,.6-.33.65.65,0,0,0-.23-.9l-.37-.21a.65.65,0,1,0-.66,1.13Z" style="stroke: #000;stroke-miterlimit: 10;stroke-width: 0.6000000000000001px"/>
          <path d="M11,11.64l.37.22a.75.75,0,0,0,.3.09.67.67,0,0,0,.6-.33.66.66,0,0,0-.24-.9l-.36-.21A.66.66,0,1,0,11,11.64Z" style="stroke: #000;stroke-miterlimit: 10;stroke-width: 0.6000000000000001px"/>
        </g>
      </g>
    </g>
  </g>
</svg>
