<svg xmlns="http://www.w3.org/2000/svg" viewBox="0 0 147.44 122.88">
  <g id="Layer_2" data-name="Layer 2">
    <g id="Layer_1-2" data-name="Layer 1">
      <path d="M33.79,98.3c0-.63.06-1.26.09-1.89l-7.14,7.14A3.07,3.07,0,0,1,22.4,99.2L34.69,86.91a2.91,2.91,0,0,1,.82-.54,45.43,45.43,0,0,1,8-15.45,26.8,26.8,0,0,0-12.77-3.34C13.75,67.58,0,84.3,0,101.37s13.75,21.51,30.72,21.51a60.94,60.94,0,0,0,14-1.41c-9-6.64-10.9-16.29-10.9-23.17Zm-23.67,2.17a3.07,3.07,0,0,1,0-4.34L22.4,83.84a3.08,3.08,0,0,1,4.35,4.35L14.46,100.47A3.07,3.07,0,0,1,10.12,100.47ZM122.87,79.86A21.13,21.13,0,0,0,111,83.66a42.3,42.3,0,0,1,2.58,16.5l7.09-7.1A3.07,3.07,0,1,1,125,97.4l-9.22,9.22a3.06,3.06,0,0,1-3.35.65,25.86,25.86,0,0,1-7.69,12.58c4.49,2.48,10.92,3,18.09,3,13.57,0,24.57-1.88,24.57-15.36s-11-27.65-24.57-27.65Zm14.46,20.61-9.22,9.22a3.07,3.07,0,1,1-4.34-4.34L133,96.13a3.07,3.07,0,0,1,4.35,4.34ZM46.42,25.36a19.21,19.21,0,0,0,9.21,12.91c1.76,10.89,9.95,13.95,15,13.95,5.57,0,11.21-3.52,12.15-10.27,7.91-2.07,12.42-7.1,12.42-14.3,0-.55,0-1.09-.08-1.62,4.13-2.53,6.22-6.1,6.22-10.67C101.36,8,94.63,0,79.86,0,70.53,0,63.72,1.36,58.77,3.46a16.27,16.27,0,0,0-3.48-.39c-7.63,0-15.37,4.22-15.37,12.29,0,3.59,2.1,7.19,6.5,10Zm9.28,5.05a14.38,14.38,0,0,1-1.31-1.63c.53.15,1.07.28,1.63.42-.13.4-.23.81-.32,1.21Zm15,15.67a8.64,8.64,0,0,1-7.56-4.55,40,40,0,0,0,13.07,1.41,6.12,6.12,0,0,1-5.51,3.14ZM81.86,35.9a9.69,9.69,0,0,0-8.14-5.18,3.07,3.07,0,1,0,0,6.14,30.25,30.25,0,0,1-12.28-2.47,10.7,10.7,0,0,1,.68-4.13,74.26,74.26,0,0,0,8.52.47q11.24,0,18.39-2.09c-.41,4-3.4,6.18-7.17,7.26ZM65.52,24.4c2.87-3.25,7.44-6,14.34-6a9.34,9.34,0,0,1,7.82,4.24c-6.31,1.94-15.41,2.22-22.16,1.73ZM79.86,6.15c10.09,0,15.36,4.64,15.36,9.22a5.85,5.85,0,0,1-2,4.45,15.58,15.58,0,0,0-13.32-7.53A26.87,26.87,0,0,0,70.13,14a3.08,3.08,0,0,0-.38-3.88,31.93,31.93,0,0,0-3-2.72A61.52,61.52,0,0,1,79.86,6.15Zm-20.58,3.9a19.64,19.64,0,0,1,6.12,4.41,3.09,3.09,0,0,0,1.82.88,23.39,23.39,0,0,0-8.6,8.13,31.62,31.62,0,0,1-6.4-2C52.22,16,55.05,12.38,59.28,10.05Zm-9.78.41a17.61,17.61,0,0,0-3,6.62,3.75,3.75,0,0,1-.47-1.72,5.36,5.36,0,0,1,3.43-4.9Zm24.22,51c-18.66,0-33.79,17.93-33.79,36.86s15.13,24.58,33.79,24.58,33.79-5.64,33.79-24.58S92.38,61.44,73.72,61.44Zm2.17,42.11a3.07,3.07,0,0,1-4.34,0L59.26,91.26a3.07,3.07,0,0,1,4.34-4.35L75.89,99.2A3.08,3.08,0,0,1,75.89,103.55Zm15.36-3.08a3.07,3.07,0,0,1-4.34,0L74.62,88.19A3.07,3.07,0,1,1,79,83.84L91.25,96.13A3.07,3.07,0,0,1,91.25,100.47Z" style="fill: #a5a2a2"/>
    </g>
  </g>
</svg>
