<svg xmlns="http://www.w3.org/2000/svg" viewBox="0 0 31.45 34.75">
  <g id="Layer_2" data-name="Layer 2">
    <g id="Layer_1-2" data-name="Layer 1">
      <g>
        <path d="M31.27,6a1.35,1.35,0,0,0-1.16-.67H23.43V4a4,4,0,0,0-4-4h-8A4,4,0,0,0,8.57,1.17,4,4,0,0,0,7.4,4V5.34H1.34A1.34,1.34,0,1,0,1.34,8h.71V28.07a6.69,6.69,0,0,0,6.68,6.68H22.1a6.69,6.69,0,0,0,6.68-6.68V8h1.33a1.34,1.34,0,0,0,1.16-2ZM10.07,4A1.33,1.33,0,0,1,11.4,2.67h8A1.33,1.33,0,0,1,20.76,4V5.34H10.07Zm16,24a4,4,0,0,1-4,4H8.73a4,4,0,0,1-4-4V8H26.1Z" style="fill: #cc3e19"/>
        <path d="M10.74,26.55a1.32,1.32,0,0,0,1.33,0,1.35,1.35,0,0,0,.67-1.16V14.7a1.33,1.33,0,0,0-.39-.94,1.32,1.32,0,0,0-1.89,0,1.33,1.33,0,0,0-.39.94V25.39A1.33,1.33,0,0,0,10.74,26.55Z" style="fill: #cc3e19"/>
        <path d="M18.76,26.55a1.32,1.32,0,0,0,1.33,0,1.35,1.35,0,0,0,.67-1.16V14.7a1.33,1.33,0,0,0-.39-.94,1.32,1.32,0,0,0-1.89,0,1.33,1.33,0,0,0-.39.94V25.39A1.33,1.33,0,0,0,18.76,26.55Z" style="fill: #cc3e19"/>
      </g>
    </g>
  </g>
</svg>
