<svg xmlns="http://www.w3.org/2000/svg" viewBox="0 0 10.06 10.06">
  <g id="Layer_2" data-name="Layer 2">
    <g id="Layer_1-2" data-name="Layer 1">
      <g>
        <path d="M9.56,1H2.79a.5.5,0,0,1-.5-.5.5.5,0,0,1,.5-.5H9.56a.5.5,0,0,1,0,1Z" style="fill: #020202"/>
        <path d="M9.56,7.77a.5.5,0,0,1-.5-.5V.5a.5.5,0,0,1,.5-.5.5.5,0,0,1,.5.5V7.27A.5.5,0,0,1,9.56,7.77Z" style="fill: #020202"/>
        <path d="M.5,10.06a.46.46,0,0,1-.35-.14.5.5,0,0,1,0-.71L9,.39a.5.5,0,0,1,.7,0,.5.5,0,0,1,0,.71L.85,9.92A.46.46,0,0,1,.5,10.06Z" style="fill: #020202"/>
      </g>
    </g>
  </g>
</svg>
