<?xml version="1.0" standalone="no"?>
<!DOCTYPE svg PUBLIC "-//W3C//DTD SVG 20010904//EN"
 "http://www.w3.org/TR/2001/REC-SVG-20010904/DTD/svg10.dtd">
<svg version="1.0" xmlns="http://www.w3.org/2000/svg"
 width="672.000000pt" height="672.000000pt" viewBox="0 0 672.000000 672.000000"
 preserveAspectRatio="xMidYMid meet">
<metadata>
Created by potrace 1.14, written by Peter Selinger 2001-2017
</metadata>
<g transform="translate(0.000000,672.000000) scale(0.100000,-0.100000)"
fill="#000000" stroke="none">
<path d="M3427 6285 c-26 -6 -50 -13 -52 -14 -3 0 -6 -1 -7 -2 -2 0 -13 -2
-26 -5 -13 -2 -36 -11 -51 -19 -16 -8 -31 -11 -35 -8 -3 4 -6 2 -6 -4 0 -6
-14 -16 -31 -24 -35 -14 -140 -89 -173 -123 -12 -12 -46 -50 -76 -86 -30 -36
-57 -67 -60 -70 -3 -3 -41 -48 -85 -100 -44 -52 -84 -100 -90 -106 -5 -6 -23
-28 -40 -49 -16 -21 -34 -43 -40 -49 -11 -12 -92 -112 -112 -136 -6 -8 -27
-33 -45 -56 -70 -86 -199 -247 -225 -281 -12 -15 -30 -38 -40 -50 -10 -13 -34
-44 -53 -70 -19 -27 -39 -53 -45 -59 -16 -18 -50 -63 -107 -139 -29 -38 -56
-74 -61 -80 -24 -29 -284 -382 -327 -445 -14 -19 -28 -39 -33 -45 -5 -5 -46
-64 -92 -130 -46 -66 -88 -125 -92 -131 -4 -5 -12 -17 -18 -26 -5 -9 -30 -45
-54 -80 -25 -34 -72 -103 -105 -153 -33 -49 -66 -96 -73 -103 -7 -7 -13 -17
-13 -22 0 -5 -6 -15 -13 -22 -7 -7 -37 -51 -66 -98 -30 -47 -58 -86 -63 -88
-4 -2 -8 -8 -8 -12 0 -5 -28 -52 -62 -104 -35 -52 -85 -130 -112 -173 -27 -43
-64 -100 -81 -128 -116 -181 -375 -612 -375 -624 0 -5 -4 -11 -8 -13 -4 -1
-75 -120 -156 -263 -182 -319 -208 -387 -212 -552 -2 -111 8 -183 41 -281 16
-46 63 -144 74 -152 4 -3 15 -18 25 -35 95 -149 307 -277 511 -309 17 -2 31
-5 33 -6 1 -2 10 -3 20 -5 9 -1 35 -5 57 -10 22 -4 49 -9 60 -11 11 -2 44 -9
74 -15 30 -6 64 -12 75 -14 12 -1 89 -14 171 -28 83 -14 168 -29 190 -32 22
-4 54 -9 70 -11 17 -3 41 -7 55 -10 14 -3 41 -7 60 -9 55 -7 102 -13 135 -19
43 -7 273 -38 315 -41 19 -2 49 -6 65 -9 17 -3 57 -8 90 -11 33 -4 78 -9 100
-11 22 -3 60 -7 85 -9 25 -3 65 -7 90 -11 46 -6 96 -10 205 -19 33 -2 80 -7
105 -9 44 -5 180 -15 270 -21 115 -7 270 -17 320 -20 30 -2 114 -7 185 -12 72
-4 407 -8 745 -8 542 1 739 5 990 20 36 2 115 7 175 10 61 3 130 8 155 10 25
2 83 7 130 10 47 3 105 8 130 11 25 2 73 7 106 9 153 11 196 18 284 47 119 38
208 94 300 187 77 78 96 105 140 196 58 119 79 216 75 350 -2 61 -5 117 -8
125 -2 8 -7 29 -11 45 -13 51 -115 305 -182 453 -13 29 -24 55 -24 57 0 2 -11
28 -24 57 -13 29 -34 76 -46 103 -54 122 -73 163 -90 200 -10 22 -37 79 -59
127 -23 49 -60 127 -83 176 -23 48 -42 89 -43 92 -2 11 -269 542 -326 650
-128 242 -216 404 -240 444 -10 17 -24 42 -31 56 -11 22 -245 432 -268 470 -5
8 -28 47 -51 85 -23 39 -52 86 -64 105 -12 19 -65 104 -116 188 -52 84 -102
165 -111 180 -10 15 -25 41 -34 57 -9 17 -20 32 -23 35 -4 3 -27 37 -50 75
-24 39 -48 72 -53 73 -4 2 -8 8 -8 13 0 16 -402 609 -442 653 -10 11 -18 25
-18 32 0 7 -4 14 -8 16 -4 2 -37 44 -72 93 -101 140 -121 161 -215 230 -61 44
-181 105 -207 105 -8 0 -18 3 -22 7 -3 4 -12 8 -19 9 -7 2 -34 7 -62 12 -68
14 -220 12 -278 -3z m-62 -777 c14 -43 108 -306 115 -323 5 -11 29 -78 55
-150 25 -71 51 -142 57 -157 5 -15 10 -31 10 -35 0 -4 3 -12 8 -18 6 -9 29
-70 36 -100 3 -10 80 -218 91 -245 3 -8 7 -19 9 -25 3 -14 152 -424 165 -453
5 -13 18 -49 28 -80 11 -32 25 -70 32 -87 7 -16 13 -34 14 -40 3 -9 24 -67
107 -295 11 -30 27 -69 34 -87 8 -17 14 -34 14 -38 0 -4 27 -82 61 -173 215
-587 203 -547 203 -672 0 -58 -3 -116 -6 -130 -37 -146 -138 -282 -268 -361
-211 -129 -528 -265 -795 -344 -49 -14 -110 -32 -135 -40 -59 -18 -310 -80
-380 -94 -30 -6 -66 -14 -80 -17 -14 -3 -36 -7 -50 -10 -14 -2 -36 -7 -50 -9
-14 -3 -38 -8 -55 -10 -16 -3 -52 -10 -80 -15 -27 -5 -66 -12 -85 -14 -19 -3
-44 -7 -55 -10 -11 -2 -45 -7 -75 -11 -30 -4 -64 -9 -75 -11 -11 -2 -40 -6
-65 -9 -25 -3 -54 -6 -65 -9 -11 -2 -45 -7 -75 -10 -30 -4 -71 -9 -90 -11 -19
-3 -60 -7 -90 -11 -30 -3 -68 -7 -85 -9 -16 -2 -64 -6 -105 -10 -41 -3 -87 -8
-103 -11 -15 -2 -64 -7 -110 -10 -45 -2 -98 -7 -117 -9 -87 -9 -263 -19 -340
-19 -76 -1 -104 3 -184 20 -11 3 -32 7 -45 10 -74 15 -121 75 -126 159 -1 20
24 96 35 105 3 3 33 52 65 110 33 58 68 119 78 135 9 17 20 38 23 48 4 9 10
17 15 17 5 0 9 4 9 9 0 5 28 56 61 113 34 57 69 117 79 133 9 17 36 60 58 98
23 37 42 70 42 73 0 2 5 10 10 17 6 7 57 86 113 177 56 91 105 167 109 168 5
2 8 8 8 12 0 9 61 106 171 274 33 48 59 92 59 97 0 5 3 9 8 9 4 0 16 17 27 37
11 20 25 41 30 47 6 6 46 65 89 131 77 116 379 554 418 605 60 79 118 162 118
170 0 4 3 10 8 12 6 3 45 52 97 124 78 108 391 520 473 623 15 18 41 50 57 71
90 113 307 383 319 396 6 7 43 50 81 97 71 87 82 97 90 75z m896 -686 c9 -15
42 -67 73 -115 31 -49 56 -92 56 -97 0 -4 4 -10 8 -12 4 -1 47 -68 96 -148 48
-80 97 -157 107 -172 10 -15 19 -30 19 -32 0 -9 95 -161 103 -164 4 -2 7 -8 7
-14 0 -5 23 -48 50 -95 28 -47 50 -87 50 -91 0 -3 6 -13 14 -21 7 -9 29 -45
49 -81 19 -36 63 -114 96 -174 34 -60 61 -112 61 -116 0 -5 3 -10 8 -12 4 -1
17 -23 30 -48 12 -25 33 -63 45 -85 117 -208 377 -716 525 -1025 87 -182 172
-362 172 -365 0 -2 18 -43 41 -92 69 -151 72 -158 70 -158 -1 0 11 -28 28 -62
17 -34 31 -64 31 -67 0 -3 12 -31 26 -63 35 -80 51 -117 70 -160 9 -21 20 -45
24 -54 15 -29 5 -104 -19 -138 -39 -54 -54 -59 -256 -76 -33 -3 -85 -7 -115
-10 -30 -3 -93 -8 -140 -11 -47 -3 -107 -7 -135 -9 -68 -5 -266 -16 -345 -20
-173 -9 -642 -18 -865 -18 -382 1 -959 20 -995 33 -5 2 55 19 145 41 22 5 46
12 53 14 7 2 16 5 20 6 4 0 13 5 20 11 6 6 12 8 12 4 0 -3 15 0 33 7 17 8 35
14 40 15 11 1 98 32 122 44 12 5 28 10 38 12 9 1 20 5 23 9 4 4 16 7 26 7 10
0 18 5 18 12 0 6 3 9 6 6 6 -7 276 109 331 142 19 11 40 20 48 20 7 0 15 3 17
8 2 4 41 27 88 51 265 136 465 331 576 561 32 67 78 194 88 243 3 15 8 38 11
51 26 125 26 313 0 447 -8 40 -54 201 -65 224 -5 11 -25 67 -45 125 -20 58
-42 119 -48 135 -6 17 -12 35 -14 40 -1 6 -15 46 -32 90 -40 109 -122 338
-126 350 -1 6 -5 17 -8 25 -4 8 -50 137 -102 285 -53 149 -98 277 -102 285 -3
8 -7 20 -9 25 -1 6 -21 62 -44 125 -23 63 -51 142 -62 175 -11 33 -25 71 -31
85 -6 14 -12 33 -14 43 -1 10 -10 31 -18 48 -20 37 -6 38 16 1z"/>
<path d="M3485 3095 c-119 -35 -203 -125 -222 -237 -9 -53 -9 -53 0 -107 10
-58 42 -117 88 -161 48 -47 207 -139 249 -145 3 0 10 -3 15 -6 21 -12 102 -1
148 20 166 76 235 264 156 428 -30 62 -87 112 -187 166 -99 52 -172 65 -247
42z"/>
<path d="M1867 2886 c-91 -34 -149 -93 -183 -184 -11 -31 -13 -150 -2 -182 24
-73 79 -137 158 -184 144 -87 151 -89 230 -90 62 0 84 4 127 27 88 45 162 159
167 257 2 49 -16 127 -42 178 -19 39 -97 112 -118 112 -8 0 -14 4 -14 9 0 4
-32 23 -70 40 -91 42 -172 47 -253 17z"/>
</g>
</svg>
